<svg width="140" height="142" viewBox="0 0 140 142" fill="none" xmlns="http://www.w3.org/2000/svg">
<g clip-path="url(#clip0_788_7308)">
<path d="M97.1166 22H42.8835C30.7975 22 21 31.7976 21 43.8835V98.1166C21 110.203 30.7975 120 42.8835 120H97.1166C109.203 120 119 110.203 119 98.1166V43.8835C119 31.7976 109.203 22 97.1166 22Z" fill="#151617"/>
<path d="M97.1166 22H42.8835C30.7975 22 21 31.7976 21 43.8835V98.1166C21 110.203 30.7975 120 42.8835 120H97.1166C109.203 120 119 110.203 119 98.1166V43.8835C119 31.7976 109.203 22 97.1166 22Z" fill="url(#paint0_linear_788_7308)"/>
<g filter="url(#filter0_dddddd_788_7308)">
<path d="M84.2129 45.8H50.9591M42.6458 54.1133V67.6504C42.6458 74.9614 45.5023 81.9831 50.6062 87.2179C55.8817 92.6283 63.121 95.6803 70.6779 95.6803H84.2129M101.554 79.0533H84.2129" stroke="white" stroke-width="16.6267" stroke-linejoin="round"/>
</g>
</g>
<defs>
<filter id="filter0_dddddd_788_7308" x="9.24088" y="37.4866" width="117.405" height="122.266" filterUnits="userSpaceOnUse" color-interpolation-filters="sRGB">
<feFlood flood-opacity="0" result="BackgroundImageFix"/>
<feColorMatrix in="SourceAlpha" type="matrix" values="0 0 0 0 0 0 0 0 0 0 0 0 0 0 0 0 0 0 127 0" result="hardAlpha"/>
<feOffset dy="0.848645"/>
<feGaussianBlur stdDeviation="0.347175"/>
<feColorMatrix type="matrix" values="0 0 0 0 0 0 0 0 0 0 0 0 0 0 0 0 0 0 0.0253031 0"/>
<feBlend mode="normal" in2="BackgroundImageFix" result="effect1_dropShadow_788_7308"/>
<feColorMatrix in="SourceAlpha" type="matrix" values="0 0 0 0 0 0 0 0 0 0 0 0 0 0 0 0 0 0 127 0" result="hardAlpha"/>
<feOffset dy="2.03941"/>
<feGaussianBlur stdDeviation="0.834309"/>
<feColorMatrix type="matrix" values="0 0 0 0 0 0 0 0 0 0 0 0 0 0 0 0 0 0 0.0363503 0"/>
<feBlend mode="normal" in2="effect1_dropShadow_788_7308" result="effect2_dropShadow_788_7308"/>
<feColorMatrix in="SourceAlpha" type="matrix" values="0 0 0 0 0 0 0 0 0 0 0 0 0 0 0 0 0 0 127 0" result="hardAlpha"/>
<feOffset dy="3.84005"/>
<feGaussianBlur stdDeviation="1.57093"/>
<feColorMatrix type="matrix" values="0 0 0 0 0 0 0 0 0 0 0 0 0 0 0 0 0 0 0.045 0"/>
<feBlend mode="normal" in2="effect2_dropShadow_788_7308" result="effect3_dropShadow_788_7308"/>
<feColorMatrix in="SourceAlpha" type="matrix" values="0 0 0 0 0 0 0 0 0 0 0 0 0 0 0 0 0 0 127 0" result="hardAlpha"/>
<feOffset dy="6.84999"/>
<feGaussianBlur stdDeviation="2.80227"/>
<feColorMatrix type="matrix" values="0 0 0 0 0 0 0 0 0 0 0 0 0 0 0 0 0 0 0.0536497 0"/>
<feBlend mode="normal" in2="effect3_dropShadow_788_7308" result="effect4_dropShadow_788_7308"/>
<feColorMatrix in="SourceAlpha" type="matrix" values="0 0 0 0 0 0 0 0 0 0 0 0 0 0 0 0 0 0 127 0" result="hardAlpha"/>
<feOffset dy="12.8122"/>
<feGaussianBlur stdDeviation="5.24133"/>
<feColorMatrix type="matrix" values="0 0 0 0 0 0 0 0 0 0 0 0 0 0 0 0 0 0 0.0646969 0"/>
<feBlend mode="normal" in2="effect4_dropShadow_788_7308" result="effect5_dropShadow_788_7308"/>
<feColorMatrix in="SourceAlpha" type="matrix" values="0 0 0 0 0 0 0 0 0 0 0 0 0 0 0 0 0 0 127 0" result="hardAlpha"/>
<feOffset dy="30.6675"/>
<feGaussianBlur stdDeviation="12.5458"/>
<feColorMatrix type="matrix" values="0 0 0 0 0 0 0 0 0 0 0 0 0 0 0 0 0 0 0.09 0"/>
<feBlend mode="normal" in2="effect5_dropShadow_788_7308" result="effect6_dropShadow_788_7308"/>
<feBlend mode="normal" in="SourceGraphic" in2="effect6_dropShadow_788_7308" result="shape"/>
</filter>
<linearGradient id="paint0_linear_788_7308" x1="41.2185" y1="122.081" x2="41.2185" y2="19.9187" gradientUnits="userSpaceOnUse">
<stop stop-color="white" stop-opacity="0"/>
<stop offset="1" stop-color="white" stop-opacity="0.2"/>
</linearGradient>
<clipPath id="clip0_788_7308">
<rect width="140" height="141.4" fill="white" transform="translate(0 0.300003)"/>
</clipPath>
</defs>
</svg>
